<svg xmlns="http://www.w3.org/2000/svg" viewBox="0 0 64 64" fill="none">
  <!-- White Cricket Ball -->
  <circle cx="32" cy="32" r="26" fill="#F5F5F4" stroke="#D6D3D1" stroke-width="1.5"/>
  <circle cx="32" cy="32" r="24" fill="white"/>
  <!-- Seam -->
  <path d="M 18 20 Q 28 32 18 44" stroke="#DC2626" stroke-width="2" fill="none" stroke-linecap="round"/>
  <path d="M 46 20 Q 36 32 46 44" stroke="#DC2626" stroke-width="2" fill="none" stroke-linecap="round"/>
  <!-- Stitch marks on seam -->
  <line x1="16" y1="23" x2="20" y2="22" stroke="#DC2626" stroke-width="1" stroke-linecap="round"/>
  <line x1="15" y1="27" x2="19" y2="27" stroke="#DC2626" stroke-width="1" stroke-linecap="round"/>
  <line x1="15" y1="31" x2="19" y2="32" stroke="#DC2626" stroke-width="1" stroke-linecap="round"/>
  <line x1="15" y1="35" x2="19" y2="36" stroke="#DC2626" stroke-width="1" stroke-linecap="round"/>
  <line x1="16" y1="39" x2="20" y2="40" stroke="#DC2626" stroke-width="1" stroke-linecap="round"/>
  <line x1="44" y1="23" x2="48" y2="22" stroke="#DC2626" stroke-width="1" stroke-linecap="round"/>
  <line x1="45" y1="27" x2="49" y2="27" stroke="#DC2626" stroke-width="1" stroke-linecap="round"/>
  <line x1="45" y1="31" x2="49" y2="32" stroke="#DC2626" stroke-width="1" stroke-linecap="round"/>
  <line x1="45" y1="35" x2="49" y2="36" stroke="#DC2626" stroke-width="1" stroke-linecap="round"/>
  <line x1="44" y1="39" x2="48" y2="40" stroke="#DC2626" stroke-width="1" stroke-linecap="round"/>
  <!-- Subtle shine -->
  <ellipse cx="26" cy="22" rx="6" ry="4" fill="white" opacity="0.4"/>
</svg>
